<?xml version="1.0"?>
<svg xmlns="http://www.w3.org/2000/svg" xmlns:xlink="http://www.w3.org/1999/xlink" version="1.1" id="Capa_1" x="0px" y="0px" viewBox="0 0 58 58" style="enable-background:new 0 0 58 58;" xml:space="preserve" width="512px" height="512px" class=""><g><polygon style="fill:#EDEADA;" points="27.5,4 27.5,28 19.5,22 11.5,28 11.5,4 4.5,4 4.5,58 53.5,58 53.5,4 " data-original="#EDEADA" class=""/><g>
	<path style="fill:#CEC9AE;" d="M46.5,35h-35c-0.553,0-1,0.447-1,1s0.447,1,1,1h35c0.553,0,1-0.447,1-1S47.053,35,46.5,35z" data-original="#CEC9AE" class=""/>
	<path style="fill:#CEC9AE;" d="M46.5,28h-13c-0.553,0-1,0.447-1,1s0.447,1,1,1h13c0.553,0,1-0.447,1-1S47.053,28,46.5,28z" data-original="#CEC9AE" class=""/>
	<path style="fill:#CEC9AE;" d="M46.5,21h-13c-0.553,0-1,0.447-1,1s0.447,1,1,1h13c0.553,0,1-0.447,1-1S47.053,21,46.5,21z" data-original="#CEC9AE" class=""/>
	<path style="fill:#CEC9AE;" d="M33.5,16h13c0.553,0,1-0.447,1-1s-0.447-1-1-1h-13c-0.553,0-1,0.447-1,1S32.947,16,33.5,16z" data-original="#CEC9AE" class=""/>
	<path style="fill:#CEC9AE;" d="M46.5,47h-35c-0.553,0-1,0.447-1,1s0.447,1,1,1h35c0.553,0,1-0.447,1-1S47.053,47,46.5,47z" data-original="#CEC9AE" class=""/>
	<path style="fill:#CEC9AE;" d="M11.5,43h14c0.553,0,1-0.447,1-1s-0.447-1-1-1h-14c-0.553,0-1,0.447-1,1S10.947,43,11.5,43z" data-original="#CEC9AE" class=""/>
	<path style="fill:#CEC9AE;" d="M46.5,41h-13c-0.553,0-1,0.447-1,1s0.447,1,1,1h13c0.553,0,1-0.447,1-1S47.053,41,46.5,41z" data-original="#CEC9AE" class=""/>
	<path style="fill:#CEC9AE;" d="M30.21,42.71c0.18-0.19,0.29-0.45,0.29-0.71c0-0.261-0.11-0.521-0.29-0.7   c-0.37-0.38-1.061-0.38-1.42-0.01c-0.181,0.189-0.29,0.449-0.29,0.71c0,0.26,0.109,0.52,0.29,0.71C28.979,42.89,29.229,43,29.5,43   C29.76,43,30.02,42.89,30.21,42.71z" data-original="#CEC9AE" class=""/>
</g><polygon style="fill:#91C34A" points="27.5,28 19.5,22 11.5,28 11.5,0 27.5,0 " data-original="#D75A4A" class="active-path" data-old_color="#91c34a"/></g> </svg>
