<?xml version="1.0"?>
<svg xmlns="http://www.w3.org/2000/svg" height="512px" viewBox="-16 0 512 512.00004" width="512px" class=""><g><path d="m240.550781 0-105.929687 105.929688c-7.160156 7.640624-12.527344 16.777343-15.714844 26.75-8.386719 24.273437-10.238281 56.496093-10.59375 88.273437l-82.359375 112.464844c-22.597656-28.425781-53.144531-106.902344 20.390625-209.832031 26.632812-38.625 61.484375-70.878907 102.046875-94.453126 22.679687-12.96875 47.347656-22.09375 73.003906-27.015624.441407-.085938.796875-.085938 1.238281-.175782 5.050782-.90625 10.148438-1.527344 15.269532-1.8515622 1.675781-.0898438 2.648437-.0898438 2.648437-.0898438zm0 0" fill="#fb7b76" data-original="#FB7B76" class="" style="fill:#DC6027" data-old_color="#dc6027"/><path d="m455.148438 333.328125-82.359376-113.785156c-.441406-31.164063-2.296874-62.765625-10.59375-86.6875v-.089844c-3.183593-9.996094-8.550781-19.164063-15.714843-26.835937l-105.929688-105.929688s.972657 0 2.648438.0898438c5.121093.3242182 10.21875.9453122 15.273437 1.8515622.441406.089844.792969.089844 1.234375.175782 25.65625 4.921874 50.324219 14.046874 73.003907 27.015624 40.566406 23.574219 75.414062 55.828126 102.046874 94.453126 73.445313 102.839843 42.992188 181.230468 20.390626 209.742187zm0 0" fill="#fb7b76" data-original="#FB7B76" class="" style="fill:#DC6027" data-old_color="#dc6027"/><path d="m364.136719 432.550781-64.351563 58.882813c-37.9375 15.652344-80.53125 15.652344-118.46875 0l-64.351562-58.882813s17.65625-158.894531 35.308594-211.859375c3.121093-9.457031 8.375-18.066406 15.363281-25.160156 27.011719-27.808594 72.914062-27.808594 72.914062-27.808594s45.902344 0 72.917969 27.808594c6.984375 7.09375 12.238281 15.703125 15.359375 25.160156 17.652344 52.964844 35.308594 211.859375 35.308594 211.859375zm0 0" fill="#95a5a5" data-original="#95A5A5" class="" style="fill:#91C34A" data-old_color="#91c34a"/><path d="m240.550781 167.722656s45.902344 0 72.917969 27.808594c-22.617188 11.289062-47.644531 16.894531-72.917969 16.332031-25.273437.574219-50.300781-5.035156-72.914062-16.332031 27.011719-27.808594 72.914062-27.808594 72.914062-27.808594zm0 0" fill="#7f8c8d" data-original="#7F8C8D" class="" style="fill:#77A437" data-old_color="#77a437"/><g fill="#ff5364"><path d="m237.902344.0898438c1.675781-.0898438 2.648437-.0898438 2.648437-.0898438l-105.929687 105.929688c-7.160156 7.640624-12.527344 16.777343-15.714844 26.75-1.328125-6.386719-1.976562-12.898438-1.941406-19.421876.773437-30.769531 11.835937-60.386718 31.425781-84.125 22.679687-12.96875 47.347656-22.09375 73.003906-27.015624.441407-.085938.796875-.085938 1.238281-.175782 5.050782-.90625 10.148438-1.527344 15.269532-1.8515622zm0 0" data-original="#000000" class="" style="fill:#E38052" data-old_color="#e38052"/><path d="m364.136719 113.257812c.035156 6.554688-.613281 13.09375-1.941407 19.507813-3.183593-9.996094-8.550781-19.164063-15.714843-26.835937l-105.929688-105.929688s.972657 0 2.648438.0898438c5.121093.3242182 10.21875.9453122 15.273437 1.8515622.441406.089844.792969.089844 1.234375.175782 25.65625 4.921874 50.324219 14.046874 73.003907 27.015624 19.589843 23.738282 30.652343 53.355469 31.425781 84.125zm0 0" data-original="#000000" class="" style="fill:#E38052" data-old_color="#e38052"/><path d="m64.003906 203.035156c-.859375 0-1.714844-.125-2.539062-.371094-2.242188-.671874-4.128906-2.207031-5.238282-4.269531-1.109374-2.0625-1.355468-4.480469-.683593-6.722656 28.046875-93.492187 77.007812-94.570313 79.078125-94.570313 4.875-.039062 8.859375 3.882813 8.898437 8.757813.039063 4.875-3.882812 8.859375-8.757812 8.898437-.929688.054688-38.585938 2.914063-62.304688 81.984376-1.121093 3.734374-4.554687 6.289062-8.453125 6.292968zm0 0" data-original="#000000" class="" style="fill:#E38052" data-old_color="#e38052"/><path d="m417.101562 203.035156c-3.898437-.003906-7.332031-2.558594-8.453124-6.292968-23.894532-79.65625-61.9375-81.976563-62.320313-81.984376-4.828125-.171874-8.636719-4.160156-8.585937-8.992187.046874-4.792969 3.945312-8.65625 8.738281-8.664063 2.070312 0 51.03125 1.078126 79.078125 94.570313.671875 2.242187.425781 4.660156-.683594 6.722656s-2.996094 3.597657-5.238281 4.269531c-.824219.246094-1.675781.367188-2.535157.371094zm0 0" data-original="#000000" class="" style="fill:#E38052" data-old_color="#e38052"/></g><path d="m151.746094 320.882812c26.480468-60.378906 42.371094-126.058593 22.6875-137.535156-12.976563-7.503906-38.753906 9.800782-66.121094 37.605469-28.042969 28.933594-52.601562 61.050781-73.179688 95.691406-3.441406 5.914063-6.53125 11.476563-9.179687 16.773438-28.160156 55.4375-17.125 80.417969 6.003906 93.925781 5.925781 3.644531 12.589844 5.9375 19.507813 6.707031zm0 0" fill="#bdc3c7" data-original="#BDC3C7" class="active-path" style="fill:#AAD470" data-old_color="#aad470"/><path d="m337.300781 320.792969c-27.894531-61.085938-45.992187-128.441407-27.363281-139.296875 11.828125-6.976563 36.457031 10.414062 62.851562 38.046875 27.90625 29.5625 52.449219 62.128906 73.179688 97.101562 3.441406 5.828125 6.53125 11.386719 9.179688 16.683594 28.425781 55.351563 18.714843 79.539063-2.734376 92.074219-6.789062 4.230468-14.695312 6.320312-22.6875 6zm0 0" fill="#bdc3c7" data-original="#BDC3C7" class="active-path" style="fill:#AAD470" data-old_color="#aad470"/><path d="m346.480469 113.285156c0 53.632813-47.425781 80.921875-105.929688 80.921875-58.503906 0-105.929687-27.289062-105.929687-80.921875 0-53.628906 47.425781-113.285156 105.929687-113.285156 58.503907 0 105.929688 59.660156 105.929688 113.285156zm0 0" fill="#bdc3c7" data-original="#BDC3C7" class="active-path" style="fill:#AAD470" data-old_color="#aad470"/><path d="m207.796875 448.875c-16.707031 50.957031-61.300781 72.800781-102.996094 59.132812-41.695312-13.667968-64.703125-57.671874-47.996093-108.632812 16.707031-50.960938 66.800781-89.578125 108.496093-75.910156 41.695313 13.667968 59.203125 74.449218 42.496094 125.410156zm0 0" fill="#7f8c8d" data-original="#7F8C8D" class="" style="fill:#77A437" data-old_color="#77a437"/><path d="m273.304688 448.875c16.710937 50.957031 61.300781 72.800781 102.996093 59.132812 41.695313-13.667968 64.703125-57.671874 47.996094-108.632812s-66.800781-89.578125-108.496094-75.910156c-41.695312 13.667968-59.203125 74.449218-42.496093 125.410156zm0 0" fill="#7f8c8d" data-original="#7F8C8D" class="" style="fill:#77A437" data-old_color="#77a437"/><path d="m247.628906 138.230469 17.402344-19.257813c2.085938-2.515625 2.433594-6.046875.875-8.917968-1.558594-2.871094-4.710938-4.503907-7.957031-4.125h-34.796875c-3.246094-.378907-6.398438 1.253906-7.957032 4.125-1.558593 2.871093-1.210937 6.402343.875 8.917968l17.402344 19.257813c1.851563 1.921875 4.40625 3.011719 7.078125 3.011719s5.226563-1.089844 7.078125-3.011719zm0 0" fill="#ff5364" data-original="#FF5364" class="" style="fill:#E38052" data-old_color="#e38052"/><path d="m187.585938 88.277344c-4.875 0-8.828126-3.953125-8.828126-8.828125v-8.828125c0-4.875 3.953126-8.828125 8.828126-8.828125s8.828124 3.953125 8.828124 8.828125v8.828125c0 4.875-3.953124 8.828125-8.828124 8.828125zm0 0" fill="#2c3e50" data-original="#2C3E50" class="" style="fill:#2C3E50"/><path d="m293.515625 88.277344c-4.875 0-8.828125-3.953125-8.828125-8.828125v-8.828125c0-4.875 3.953125-8.828125 8.828125-8.828125s8.828125 3.953125 8.828125 8.828125v8.828125c0 4.875-3.953125 8.828125-8.828125 8.828125zm0 0" fill="#2c3e50" data-original="#2C3E50" class="" style="fill:#2C3E50"/></g> </svg>
