<?xml version="1.0"?>
<svg xmlns="http://www.w3.org/2000/svg" xmlns:xlink="http://www.w3.org/1999/xlink" version="1.1" id="Capa_1" x="0px" y="0px" viewBox="0 0 54 54" style="enable-background:new 0 0 54 54;" xml:space="preserve" width="512px" height="512px" class=""><g><g>
	<rect style="fill:#77A437" width="18" height="54" data-original="#802F34" class="" data-old_color="#77a437"/>
	<rect x="18" style="fill:#91C34A" width="18" height="54" data-original="#C03A2B" class="" data-old_color="#91c34a"/>
	<rect x="36" style="fill:#AAD470" width="18" height="54" data-original="#E64C3C" class="active-path" data-old_color="#aad470"/>
	<rect x="4" y="4" style="fill:#FFFFFF;" width="10" height="20" data-original="#FFFFFF" class=""/>
	<rect x="22" y="4" style="fill:#FFFFFF;" width="10" height="20" data-original="#FFFFFF" class=""/>
	<rect x="40" y="4" style="fill:#FFFFFF;" width="10" height="20" data-original="#FFFFFF" class=""/>
	<g>
		<circle style="fill:#77A437" cx="9" cy="44" r="5" data-original="#802F34" class="" data-old_color="#77a437"/>
		<path style="fill:#ECF0F1" d="M9,50c-3.309,0-6-2.691-6-6s2.691-6,6-6s6,2.691,6,6S12.309,50,9,50z M9,40c-2.206,0-4,1.794-4,4    s1.794,4,4,4s4-1.794,4-4S11.206,40,9,40z" data-original="#ECF0F1" class=""/>
	</g>
	<g>
		<circle style="fill:#77A437" cx="27" cy="44" r="5" data-original="#802F34" class="" data-old_color="#77a437"/>
		<path style="fill:#ECF0F1" d="M27,50c-3.309,0-6-2.691-6-6s2.691-6,6-6s6,2.691,6,6S30.309,50,27,50z M27,40    c-2.206,0-4,1.794-4,4s1.794,4,4,4s4-1.794,4-4S29.206,40,27,40z" data-original="#ECF0F1" class=""/>
	</g>
	<g>
		<circle style="fill:#77A437" cx="45" cy="44" r="5" data-original="#802F34" class="" data-old_color="#77a437"/>
		<path style="fill:#ECF0F1" d="M45,50c-3.309,0-6-2.691-6-6s2.691-6,6-6s6,2.691,6,6S48.309,50,45,50z M45,40    c-2.206,0-4,1.794-4,4s1.794,4,4,4s4-1.794,4-4S47.206,40,45,40z" data-original="#ECF0F1" class=""/>
	</g>
</g></g> </svg>
