<?xml version="1.0"?>
<svg xmlns="http://www.w3.org/2000/svg" xmlns:xlink="http://www.w3.org/1999/xlink" version="1.1" id="Layer_1" x="0px" y="0px" viewBox="0 0 501.551 501.551" style="enable-background:new 0 0 501.551 501.551;" xml:space="preserve" width="512px" height="512px" class=""><g><path style="fill:#DC6027" d="M501.029,250.776c0,4.18,0,9.404,0,13.584c-2.09,34.482-10.449,65.829-24.033,95.086  c-40.751,83.592-126.433,142.106-225.698,142.106c-138.971,0-250.776-112.849-250.776-250.776C0.522,111.804,112.327,0,251.298,0  C389.224,0,501.029,111.804,501.029,250.776z" data-original="#FF7058" class="" data-old_color="#dc6027"/><circle style="fill:#FFFFFF;" cx="250.253" cy="250.776" r="198.531" data-original="#FFFFFF" class=""/><circle style="fill:#DC6027" cx="250.253" cy="250.775" r="147.331" data-original="#FF7058" class="" data-old_color="#dc6027"/><circle style="fill:#FFFFFF;" cx="250.253" cy="250.775" r="95.086" data-original="#FFFFFF" class=""/><circle style="fill:#DC6027" cx="250.253" cy="250.776" r="42.841" data-original="#FF7058" class="" data-old_color="#dc6027"/><path style="opacity:0.2;fill:#334A5E;enable-background:new    ;" d="M501.029,264.359c-2.09,34.482-10.449,65.829-24.033,95.086  l-36.571-9.404l-10.449-35.527l-182.857-49.11c-9.404-2.09-14.629-11.494-11.494-20.898c2.09-9.404,11.494-14.629,20.898-11.494  l181.812,49.11L465.502,256L501.029,264.359z"/><path style="fill:#40596B;" d="M400.718,99.265c-6.269-6.269-17.763-6.269-24.033,0L239.804,236.147  c-6.269,6.269-6.269,17.763,0,24.033l0,0c6.269,6.269,17.763,6.269,24.033,0l136.882-136.882  C406.988,117.029,406.988,105.535,400.718,99.265z" data-original="#40596B" class=""/><polygon style="fill:#91C34A" points="439.38,60.604 377.731,121.208 364.147,65.829 425.796,4.18 " data-original="#84DBFF" class="" data-old_color="#91c34a"/><polygon style="fill:#77A437" points="434.155,134.792 494.759,74.188 439.38,60.604 377.731,121.208 " data-original="#54C0EB" class="active-path" data-old_color="#77a437"/></g> </svg>
