<?xml version="1.0" encoding="utf-8"?>
<!-- Generator: Adobe Illustrator 22.0.1, SVG Export Plug-In . SVG Version: 6.00 Build 0)  -->
<svg version="1.1" id="Capa_1" xmlns="http://www.w3.org/2000/svg" xmlns:xlink="http://www.w3.org/1999/xlink" x="0px" y="0px"
	 viewBox="0 0 58 58" style="enable-background:new 0 0 58 58;" xml:space="preserve">
<style type="text/css">
	.st0{fill:none;stroke:#30476B;stroke-width:3;stroke-miterlimit:10;}
	.st1{fill:#30476B;stroke:#30476B;stroke-width:3;stroke-miterlimit:10;}
</style>
<g>
	<path class="st0" d="M1,9c0-1.1,0.9-2,2-2h52c1.1,0,2,0.9,2,2v40c0,1.1-0.9,2-2,2H3c-1.1,0-2-0.9-2-2V9z"/>
</g>
<polygon class="st1" points="25,36 25,29 25,22 36,29 "/>
<g>
	<path class="st0" d="M1,9c0-1.1,0.9-2,2-2h6c1.1,0,2,0.9,2,2v7c0,1.1-0.9,2-2,2H3c-1.1,0-2-0.9-2-2V9z"/>
</g>
<g>
	<path class="st0" d="M1,31c0-1.1,0.9-2,2-2h6c1.1,0,2,0.9,2,2v7c0,1.1-0.9,2-2,2H3c-1.1,0-2-0.9-2-2V31z"/>
</g>
<g>
	<path class="st0" d="M1,42c0-1.1,0.9-2,2-2h6c1.1,0,2,0.9,2,2v7c0,1.1-0.9,2-2,2H3c-1.1,0-2-0.9-2-2V42z"/>
</g>
<g>
	<path class="st0" d="M47,9c0-1.1,0.9-2,2-2h6c1.1,0,2,0.9,2,2v7c0,1.1-0.9,2-2,2h-6c-1.1,0-2-0.9-2-2V9z"/>
</g>
<g>
	<path class="st0" d="M47,20c0-1.1,0.9-2,2-2h6c1.1,0,2,0.9,2,2v7c0,1.1-0.9,2-2,2h-6c-1.1,0-2-0.9-2-2V20z"/>
</g>
<g>
	<path class="st0" d="M47,31c0-1.1,0.9-2,2-2h6c1.1,0,2,0.9,2,2v7c0,1.1-0.9,2-2,2h-6c-1.1,0-2-0.9-2-2V31z"/>
</g>
<g>
	<path class="st0" d="M47,42c0-1.1,0.9-2,2-2h6c1.1,0,2,0.9,2,2v7c0,1.1-0.9,2-2,2h-6c-1.1,0-2-0.9-2-2V42z"/>
</g>
<g>
	<path class="st0" d="M1,20c0-1.1,0.9-2,2-2h6c1.1,0,2,0.9,2,2v7c0,1.1-0.9,2-2,2H3c-1.1,0-2-0.9-2-2V20z"/>
</g>
<g>
	<path class="st0" d="M11,9c0-1.1,0.9-2,2-2h32c1.1,0,2,0.9,2,2v40c0,1.1-0.9,2-2,2H13c-1.1,0-2-0.9-2-2V9z"/>
</g>
</svg>
