<?xml version="1.0"?>
<svg xmlns="http://www.w3.org/2000/svg" xmlns:xlink="http://www.w3.org/1999/xlink" version="1.1" id="Capa_1" x="0px" y="0px" viewBox="0 0 512 512" style="enable-background:new 0 0 512 512;" xml:space="preserve" width="512px" height="512px" class=""><g><path style="fill:#FFE8B6;" d="M298.667,256v-0.015c0-28.444,46.166-47.901,71.111-85.319  C398.222,128,398.222,28.444,398.222,28.444H256H113.778c0,0,0,99.556,28.444,142.208c24.932,37.433,71.096,56.889,71.096,85.333  V256c0,28.459-46.166,47.914-71.096,85.333C113.778,384,113.778,483.556,113.778,483.556H256h142.222c0,0,0-99.556-28.444-142.222  C344.832,303.914,298.667,284.459,298.667,256" data-original="#FFE8B6" class=""/><path style="fill:#AAD470" d="M298.653,341.333c-14.208,0-29.255-14.222-29.255-28.444c0.81-24.363,0.825-40.477,0.825-56.904  c0-45.781,43.15-64.868,69.689-99.541H172.09c26.524,34.674,69.689,53.76,69.689,99.541c0,16.427,0,32.554,0.825,56.904  c0,14.222-15.061,28.444-29.283,28.444c-28.444,0-51.114,25.372-56.889,42.667c-14.208,42.667-14.208,99.556-14.208,99.556h99.541  h14.237H369.78c0,0,0-56.889-14.222-99.556C349.797,366.705,327.098,341.333,298.653,341.333" data-original="#FFAC33" class="active-path" data-old_color="#FFAC33"/><g>
	<path style="fill:#30476B" d="M426.667,483.556c0,15.716-12.729,28.444-28.444,28.444H113.778   c-15.701,0-28.444-12.729-28.444-28.444c0-15.716,12.744-28.444,28.444-28.444h284.444   C413.938,455.111,426.667,467.84,426.667,483.556" data-original="#3B88C3" class="" data-old_color="#3B88C3"/>
	<path style="fill:#30476B" d="M426.667,28.444c0,15.701-12.729,28.444-28.444,28.444H113.778   c-15.701,0-28.444-12.744-28.444-28.444S98.077,0,113.778,0h284.444C413.938,0,426.667,12.744,426.667,28.444" data-original="#3B88C3" class="" data-old_color="#3B88C3"/>
</g></g> </svg>
